<?xml version="1.0" encoding="UTF-8"?>
<svg id="Layer_1" xmlns="http://www.w3.org/2000/svg" version="1.1" viewBox="0 0 28.2 24">
  <!-- Generator: Adobe Illustrator 29.8.2, SVG Export Plug-In . SVG Version: 2.1.1 Build 3)  -->
  <path d="M13.9,2.2c3.2,0,3.6,0,4.9,0,3.3.1,4.8,1.7,4.9,4.9,0,1.3,0,1.6,0,4.8s0,3.6,0,4.8c-.1,3.2-1.7,4.8-4.9,4.9-1.3,0-1.6,0-4.9,0s-3.6,0-4.8,0c-3.3-.1-4.8-1.7-4.9-4.9,0-1.3,0-1.6,0-4.8s0-3.6,0-4.8c.1-3.2,1.7-4.8,4.9-4.9,1.3,0,1.6,0,4.8,0ZM13.9-.2c-3.3,0-3.7,0-4.9,0C4.6,0,2.2,2.5,2,6.9c0,1.3,0,1.7,0,4.9s0,3.7,0,4.9c.2,4.4,2.6,6.8,7,7,1.3,0,1.7,0,4.9,0s3.7,0,4.9,0c4.4-.2,6.8-2.6,7-7,0-1.3,0-1.7,0-4.9s0-3.7,0-4.9c-.2-4.4-2.6-6.8-7-7-1.3,0-1.7,0-4.9,0ZM13.9,5.6c-3.4,0-6.2,2.8-6.2,6.2s2.8,6.2,6.2,6.2,6.2-2.8,6.2-6.2-2.8-6.2-6.2-6.2ZM13.9,15.8c-2.2,0-4-1.8-4-4s1.8-4,4-4,4,1.8,4,4-1.8,4-4,4ZM20.3,4c-.8,0-1.4.6-1.4,1.4s.6,1.4,1.4,1.4,1.4-.6,1.4-1.4-.6-1.4-1.4-1.4Z"/>
</svg>