<?xml version="1.0" encoding="UTF-8"?>
<svg xmlns="http://www.w3.org/2000/svg" viewBox="0 0 498.5 380.81">
  <defs>
    <style>
      .cls-1 {
        stroke-width: 20px;
      }

      .cls-1, .cls-2 {
        fill: none;
      }

      .cls-1, .cls-2, .cls-3 {
        stroke: #000;
        stroke-miterlimit: 10;
      }

      .cls-2 {
        stroke-width: 18px;
      }

      .cls-3 {
        stroke-width: 8px;
      }
    </style>
  </defs>
  <g id="mail">
    <rect class="cls-1" x="10" y="10" width="478.5" height="360.81" rx="95.04" ry="95.04"/>
    <path class="cls-2" d="M20.5,56.9c4.79,8.35,66.86,112.3,196.21,124.72,101.51,9.75,202.14-40.94,251.79-127.81"/>
  </g>
  <g id="stamp">
    <path class="cls-3" d="M296.79,177.29l.33,18.32c.2,11.23-5.82,21.66-15.65,27.1l-16.03,8.88c-9.32,5.16-20.66,5.06-29.89-.27l-18.24-10.53c-9.23-5.33-14.99-15.1-15.18-25.75l-.33-18.32c-.2-11.23,5.82-21.66,15.65-27.1l16.03-8.88c9.32-5.16,20.66-5.06,29.89.27l18.24,10.53c9.23,5.33,14.99,15.1,15.18,25.75Z"/>
  </g>
</svg>