<?xml version="1.0" encoding="UTF-8"?>
<svg id="Layer_1" data-name="Layer 1" xmlns="http://www.w3.org/2000/svg" viewBox="0 0 407.71 323.86">
  <defs>
    <style>
      .cls-1 {
        stroke-width: 20px;
      }

      .cls-1, .cls-2 {
        fill: none;
      }

      .cls-1, .cls-2, .cls-3 {
        stroke: #000000;
        stroke-miterlimit: 10;
      }

      .cls-2 {
        stroke-width: 18px;
      }

      .cls-3 {
        stroke-width: 8px;
      }
    </style>
  </defs>
  <g id="mail">
    <rect class="cls-1" x="10" y="10" width="387.71" height="303.86" rx="95.04" ry="95.04"/>
    <path class="cls-2" d="M18.51,49.5c3.88,7.03,54.17,94.57,158.98,105.03,82.25,8.21,163.79-34.48,204.01-107.64"/>
  </g>
  <g id="stamp">
    <path class="cls-3" d="M242.82,156.09l.27,15.72c.17,9.64-4.81,18.59-12.92,23.26l-13.24,7.62c-7.7,4.43-17.06,4.34-24.68-.23l-15.06-9.04c-7.62-4.57-12.38-12.96-12.54-22.1l-.27-15.72c-.17-9.64,4.81-18.59,12.92-23.26l13.24-7.62c7.7-4.43,17.06-4.34,24.68.23l15.06,9.04c7.62,4.57,12.38,12.96,12.54,22.1h0Z"/>
  </g>
</svg>