<?xml version="1.0" encoding="UTF-8"?>
<svg id="Layer_1" data-name="Layer 1" xmlns="http://www.w3.org/2000/svg" viewBox="0 0 397.5 316">
  <defs>
    <style>
      .cls-1 {
        stroke-width: 20px;
      }

      .cls-1, .cls-2 {
        fill: #fff;
      }

      .cls-1, .cls-3, .cls-4 {
        stroke: #000;
        stroke-miterlimit: 10;
      }

      .cls-5, .cls-2 {
        isolation: isolate;
      }

      .cls-2 {
        font-family: Futura-Medium, Futura;
        font-size: 70.3px;
        font-weight: 500;
      }

      .cls-3 {
        fill: none;
        stroke-width: 18px;
      }

      .cls-4 {
        stroke-width: 8px;
      }
    </style>
  </defs>
  <g id="mail">
    <rect class="cls-1" x="10" y="10" width="377.5" height="296" rx="73.46" ry="73.46"/>
    <line class="cls-3" x1="8.5" y1="50.57" x2="195.94" y2="191.16"/>
    <line class="cls-3" x1="384.5" y1="43" x2="195.94" y2="194.41"/>
    <g id="stamp">
      <path class="cls-4" d="M237.48,174.05l.27,15.72c.17,9.64-4.81,18.59-12.92,23.26l-13.24,7.62c-7.7,4.43-17.06,4.34-24.68-.23l-15.06-9.04c-7.62-4.57-12.38-12.96-12.54-22.1l-.27-15.72c-.17-9.64,4.81-18.59,12.92-23.26l13.24-7.62c7.7-4.43,17.06-4.34,24.68.23l15.06,9.04c7.62,4.57,12.38,12.96,12.54,22.1h0Z"/>
    </g>
  </g>
  <g id="IN">
    <g class="cls-5">
      <text class="cls-2" transform="translate(170.79 199.87) scale(1.14 1)"><tspan x="0" y="0">in</tspan></text>
    </g>
  </g>
</svg>