<?xml version="1.0" encoding="UTF-8"?>
<svg id="Layer_1" data-name="Layer 1" xmlns="http://www.w3.org/2000/svg" xmlns:xlink="http://www.w3.org/1999/xlink" viewBox="0 0 405.25 321.35">
  <defs>
    <style>
      .cls-1 {
        fill: url(#linear-gradient);
        stroke: #a3dbe8;
      }

      .cls-1, .cls-2, .cls-3, .cls-4, .cls-5 {
        stroke-miterlimit: 10;
      }

      .cls-1, .cls-4 {
        stroke-width: 15px;
      }

      .cls-2 {
        stroke-width: 16px;
      }

      .cls-2, .cls-3 {
        fill: none;
      }

      .cls-2, .cls-3, .cls-4, .cls-5 {
        stroke: #d2c2ff;
      }

      .cls-3 {
        stroke-width: 8px;
      }

      .cls-4 {
        fill: url(#linear-gradient-2);
      }

      .cls-5 {
        fill: url(#linear-gradient-3);
        stroke-width: 11px;
      }
    </style>
    <linearGradient id="linear-gradient" x1="8.74" y1="159.43" x2="396.45" y2="159.43" gradientUnits="userSpaceOnUse">
      <stop offset="0" stop-color="#3d10d6"/>
      <stop offset="1" stop-color="#400096"/>
      <stop offset="1" stop-color="#0d003f"/>
    </linearGradient>
    <linearGradient id="linear-gradient-2" x1="24.53" y1="99.67" x2="380.25" y2="99.67" xlink:href="#linear-gradient"/>
    <linearGradient id="linear-gradient-3" x1="166.68" y1="160.82" x2="237.27" y2="160.82" xlink:href="#linear-gradient"/>
  </defs>
  <g id="mail">
    <rect class="cls-1" x="8.74" y="7.5" width="387.71" height="303.86" rx="95.04" ry="95.04"/>
    <path class="cls-4" d="M24.53,51.08c7.38,12.5,16.45,24.08,26.28,34.73,17.18,18.62,37.44,34.51,60.05,46.05,28.95,14.79,61.38,21.95,93.87,21.1,33.58-.88,66.76-10.23,96-26.7s54.98-40.54,73.16-69.22c2.22-3.51,4.34-7.09,6.34-10.73"/>
  </g>
  <g id="stamp">
    <path class="cls-5" d="M237.02,153.99l.24,14.1c.15,8.64-4.31,16.67-11.59,20.86l-11.87,6.83c-6.9,3.97-15.3,3.89-22.13-.21l-13.51-8.1c-6.83-4.1-11.1-11.62-11.24-19.82l-.24-14.1c-.15-8.64,4.31-16.67,11.59-20.86l11.87-6.83c6.9-3.97,15.3-3.89,22.13.21l13.51,8.1c6.83,4.1,11.1,11.62,11.24,19.82h0Z"/>
  </g>
  <g id="stamp-2" data-name="stamp">
    <path class="cls-3" d="M215.33,159.58l.09,5.47c.06,3.35-1.68,6.47-4.5,8.09l-4.61,2.65c-2.68,1.54-5.95,1.51-8.6-.08l-5.25-3.14c-2.66-1.59-4.31-4.51-4.37-7.69l-.09-5.47c-.06-3.35,1.68-6.47,4.5-8.09l4.61-2.65c2.68-1.54,5.95-1.51,8.6.08l5.25,3.14c2.66,1.59,4.31,4.51,4.37,7.69h0Z"/>
  </g>
  <g id="mail-2" data-name="mail">
    <rect class="cls-2" x="8" y="8.32" width="389.25" height="305.03" rx="95.04" ry="95.04"/>
  </g>
</svg>