<?xml version="1.0" encoding="UTF-8"?>
<svg id="Layer_1" data-name="Layer 1" xmlns="http://www.w3.org/2000/svg" xmlns:xlink="http://www.w3.org/1999/xlink" viewBox="0 0 405.25 321.35">
  <defs>
    <style>
      .cls-1 {
        fill: url(#linear-gradient);
        stroke: #a3dbe8;
      }

      .cls-1, .cls-2, .cls-3, .cls-4 {
        stroke-miterlimit: 10;
      }

      .cls-1, .cls-3 {
        stroke-width: 15px;
      }

      .cls-2 {
        fill: none;
        stroke-width: 16px;
      }

      .cls-2, .cls-3, .cls-4 {
        stroke: #d2c2ff;
      }

      .cls-3 {
        fill: url(#linear-gradient-2);
      }

      .cls-4 {
        fill: url(#linear-gradient-3);
        stroke-width: 11px;
      }
    </style>
    <linearGradient id="linear-gradient" x1="8.74" y1="159.43" x2="396.45" y2="159.43" gradientUnits="userSpaceOnUse">
      <stop offset="0" stop-color="#3d10d6"/>
      <stop offset="1" stop-color="#400096"/>
      <stop offset="1" stop-color="#0d003f"/>
    </linearGradient>
    <linearGradient id="linear-gradient-2" x1="24.53" y1="99.67" x2="380.25" y2="99.67" xlink:href="#linear-gradient"/>
    <linearGradient id="linear-gradient-3" x1="162.2" y1="149.98" x2="229" y2="149.98" gradientTransform="translate(-.49 2.21)" xlink:href="#linear-gradient"/>
  </defs>
  <g id="mail">
    <rect class="cls-1" x="8.74" y="7.5" width="387.71" height="303.86" rx="95.04" ry="95.04"/>
    <path class="cls-3" d="M24.53,51.08c7.38,12.5,16.45,24.08,26.28,34.73,17.18,18.62,37.44,34.51,60.05,46.05,28.95,14.79,61.38,21.95,93.87,21.1,33.58-.88,66.76-10.23,96-26.7s54.98-40.54,73.16-69.22c2.22-3.51,4.34-7.09,6.34-10.73"/>
  </g>
  <g id="mail-2" data-name="mail">
    <rect class="cls-2" x="8" y="8.32" width="389.25" height="305.03" rx="95.04" ry="95.04"/>
  </g>
  <rect class="cls-4" x="161.71" y="119.64" width="66.8" height="65.08" rx="15.49" ry="15.49" transform="translate(164.76 -93.39) rotate(45)"/>
</svg>